# xmcd
#
# Track frame offsets:
#	183
#	11980
#	26215
#	35925
#	45335
#	56165
#	69630
#	77055
#	88858
#	98695
#	108408
#	118995
#	129783
#	141608
#	153573
#	167358
#
# Disc length: 2365 seconds
#
# Revision: 1
# Processed by: cddbd v1.5.2PL0 Copyright (c) Steve Scherf et al.
# Submitted via: audiograbber 1.83.01
#
DISCID=e2093b10
DTITLE=Mario Battaini - Mazurka Polka Allegro
DYEAR=1993
DGENRE=Mazurka
TTITLE0=Celebre marurka variata
TTITLE1=La doccia
TTITLE2=Cesarina
TTITLE3=Rosamunda
TTITLE4=Marina
TTITLE5=Fiorin Fiorello
TTITLE6=La mazurka di Carolina
TTITLE7=Reginella campagnola
TTITLE8=Fisarmonica impazzita
TTITLE9=La matchiche
TTITLE10=Forza maestro!
TTITLE11=Trottolando
TTITLE12=Polca del vino
TTITLE13=La mazurka della nonna
TTITLE14=Mazurka di mezzanotte
TTITLE15=Allegramente
EXTD=balli da sala
EXTT0=
EXTT1=
EXTT2=
EXTT3=
EXTT4=
EXTT5=
EXTT6=
EXTT7=
EXTT8=
EXTT9=
EXTT10=
EXTT11=
EXTT12=
EXTT13=
EXTT14=
EXTT15=
PLAYORDER=
